<svg xmlns="http://www.w3.org/2000/svg" viewBox="0 0 256 256">
  <rect width="256" height="256" fill="#47A248" rx="28"/>
  <path fill="#FFF" d="M128 48c-44.2 0-80 35.8-80 80 0 35.3 23 65.3 55 76v-12c0-8.8 7.2-16 16-16h18c8.8 0 16 7.2 16 16v12c32-10.7 55-40.7 55-76 0-44.2-35.8-80-80-80zm0 16c35.3 0 64 28.7 64 64 0 28.4-18.5 52.5-44 60.8V176c0-4.4-3.6-8-8-8h-24c-4.4 0-8 3.6-8 8v12.8C82.5 180.5 64 156.4 64 128c0-35.3 28.7-64 64-64zm0 32c-17.7 0-32 14.3-32 32s14.3 32 32 32 32-14.3 32-32-14.3-32-32-32zm0 16c8.8 0 16 7.2 16 16s-7.2 16-16 16-16-7.2-16-16 7.2-16 16-16z"/>
</svg>