<svg xmlns="http://www.w3.org/2000/svg" viewBox="0 0 256 256">
  <rect width="256" height="256" fill="#339933" rx="28"/>
  <path fill="#FFF" d="M128 30L50.8 75v106L128 226l77.2-45V75L128 30zm52.3 69.3c0 4.3-3.5 7.8-7.8 7.8s-7.8-3.5-7.8-7.8 3.5-7.8 7.8-7.8 7.8 3.5 7.8 7.8zM128 50.8l57.7 33.3v66.7L128 184.2 70.3 150.8V84.1L128 50.8zm0 22.4l-37.8 21.8v43.6L128 160.4l37.8-21.8V94.9L128 73.2z"/>
  <path fill="#FFF" d="M144.6 120.4c0-9.1-7.4-16.5-16.5-16.5s-16.5 7.4-16.5 16.5c0 2.2.4 4.3 1.2 6.2l-8.7 5c-1.4-3.4-2.2-7.1-2.2-11.2 0-15.7 12.7-28.4 28.4-28.4s28.4 12.7 28.4 28.4c0 4.1-.8 7.8-2.2 11.2l-8.7-5c.8-1.9 1.2-4 1.2-6.2z"/>
</svg>