<svg xmlns="http://www.w3.org/2000/svg" viewBox="0 0 256 256">
  <rect width="256" height="256" fill="#282c34" rx="28"/>
  <g fill="#61dafb">
    <path d="M128 70c-32.5 0-58.9 26.4-58.9 58.9s26.4 58.9 58.9 58.9 58.9-26.4 58.9-58.9S160.5 70 128 70zm0 100.4c-22.9 0-41.5-18.6-41.5-41.5s18.6-41.5 41.5-41.5 41.5 18.6 41.5 41.5-18.6 41.5-41.5 41.5z"/>
    <path d="M128 45.1c-46.4 0-84 37.6-84 84s37.6 84 84 84 84-37.6 84-84-37.6-84-84-84zm0 150.6c-36.7 0-66.6-29.9-66.6-66.6s29.9-66.6 66.6-66.6 66.6 29.9 66.6 66.6-29.9 66.6-66.6 66.6z"/>
    <ellipse cx="128" cy="128.9" rx="84" ry="37.1" transform="rotate(-60 128 128.9)"/>
    <ellipse cx="128" cy="128.9" rx="84" ry="37.1" transform="rotate(60 128 128.9)"/>
    <ellipse cx="128" cy="128.9" rx="84" ry="37.1"/>
    <circle cx="128" cy="128.9" r="17.4"/>
  </g>
</svg>