<svg xmlns="http://www.w3.org/2000/svg" viewBox="0 0 256 256">
  <rect width="256" height="256" fill="#3178C6" rx="28"/>
  <path fill="#FFF" d="M56.612 128.85v-8.568h26.690v74.978h18.431v-74.978h26.690v8.568H56.612zM181.679 193.99c-18.732 0-31.94-8.906-31.94-25.58 0-16.323 12.859-23.650 30.207-23.650 9.736 0 18.208 1.444 26.323 4.675v-1.207c0-10.149-8.111-16.323-22.207-16.323-10.149 0-19.539 2.888-26.323 7.563l-4.675-8.568c8.568-5.329 19.885-8.568 32.294-8.568 20.637 0 35.079 10.149 35.079 33.061v45.597h-8.568v-7.563c-6.784 5.329-16.323 8.568-26.323 8.568h-3.867zm26.323-13.736v-13.040c-6.784-2.888-14.899-4.675-23.650-4.675-14.096 0-22.207 5.329-22.207 15.478 0 10.149 8.111 15.478 20.637 15.478 9.736 0 18.208-3.867 25.220-13.241z"/>
</svg>